<svg width="49" height="49" viewBox="0 0 49 49" fill="none" xmlns="http://www.w3.org/2000/svg">
<circle cx="24.5" cy="24.5" r="24.5" fill="#94BBF7"/>
<path d="M12.8 17C12.32 17 12 17.32 12 17.8V33C12 33.48 12.32 33.8 12.8 33.8C13.28 33.8 13.6 33.48 13.6 33V30.6H34.4V33C34.4 33.48 34.72 33.8 35.2 33.8C35.68 33.8 36 33.48 36 33V29.8C36 29.32 35.68 29 35.2 29H13.6V17.8C13.6 17.32 13.28 17 12.8 17ZM17.6 17.8C16.32 17.8 15.2 18.92 15.2 20.2C15.2 21.48 16.32 22.6 17.6 22.6C18.88 22.6 20 21.48 20 20.2C20 18.92 18.88 17.8 17.6 17.8ZM23.2 19.4C20.8 19.4 20.8 21.8 20.8 21.8V24.2H16C15.52 24.2 15.2 24.52 15.2 25V26.6C15.2 27.08 15.52 27.4 16 27.4H36V23.4C36 19.4 32 19.4 32 19.4H23.2Z" fill="#153B75"/>
</svg>
