<svg width="49" height="49" viewBox="0 0 49 49" fill="none" xmlns="http://www.w3.org/2000/svg">
<circle cx="24.5" cy="24.5" r="24.5" fill="#D9BBFF"/>
<g clip-path="url(#clip0_71_26)">
<path d="M26.1075 14.575C25.488 12.475 22.512 12.475 21.8925 14.575L21.7425 15.085C21.6499 15.3994 21.4882 15.6891 21.2691 15.9328C21.05 16.1766 20.7791 16.3682 20.4763 16.4936C20.1736 16.619 19.8465 16.6751 19.5193 16.6577C19.192 16.6403 18.8728 16.5498 18.585 16.393L18.12 16.138C16.1955 15.091 14.091 17.1955 15.1395 19.1185L15.393 19.585C16.062 20.815 15.4275 22.3465 14.085 22.7425L13.575 22.8925C11.475 23.512 11.475 26.488 13.575 27.1075L14.085 27.2575C14.3994 27.3501 14.6891 27.5118 14.9328 27.7309C15.1766 27.95 15.3682 28.2209 15.4936 28.5237C15.619 28.8264 15.6751 29.1535 15.6577 29.4807C15.6403 29.808 15.5498 30.1272 15.393 30.415L15.138 30.88C14.091 32.8045 16.1955 34.909 18.1185 33.8605L18.585 33.607C18.8728 33.4502 19.192 33.3597 19.5193 33.3423C19.8465 33.3249 20.1736 33.381 20.4763 33.5064C20.7791 33.6318 21.05 33.8234 21.2691 34.0672C21.4882 34.3109 21.6499 34.6006 21.7425 34.915L21.8925 35.425C22.512 37.525 25.488 37.525 26.1075 35.425L26.2575 34.915C26.3501 34.6006 26.5118 34.3109 26.7309 34.0672C26.95 33.8234 27.2209 33.6318 27.5237 33.5064C27.8264 33.381 28.1535 33.3249 28.4807 33.3423C28.808 33.3597 29.1272 33.4502 29.415 33.607L29.88 33.862C31.8045 34.909 33.909 32.8045 32.8605 30.8815L32.607 30.415C32.4502 30.1272 32.3597 29.808 32.3423 29.4807C32.3249 29.1535 32.381 28.8264 32.5064 28.5237C32.6318 28.2209 32.8234 27.95 33.0672 27.7309C33.3109 27.5118 33.6006 27.3501 33.915 27.2575L34.425 27.1075C36.525 26.488 36.525 23.512 34.425 22.8925L33.915 22.7425C33.6006 22.6499 33.3109 22.4882 33.0672 22.2691C32.8234 22.05 32.6318 21.7791 32.5064 21.4763C32.381 21.1736 32.3249 20.8465 32.3423 20.5193C32.3597 20.192 32.4502 19.8728 32.607 19.585L32.862 19.12C33.909 17.1955 31.8045 15.091 29.8815 16.1395L29.415 16.393C29.1272 16.5498 28.808 16.6403 28.4807 16.6577C28.1535 16.6751 27.8264 16.619 27.5237 16.4936C27.2209 16.3682 26.95 16.1766 26.7309 15.9328C26.5118 15.6891 26.3501 15.3994 26.2575 15.085L26.1075 14.575V14.575ZM24 29.395C22.8344 29.395 21.7165 28.932 20.8923 28.1077C20.068 27.2835 19.605 26.1656 19.605 25C19.605 23.8344 20.068 22.7165 20.8923 21.8923C21.7165 21.068 22.8344 20.605 24 20.605C25.1652 20.605 26.2827 21.0679 27.1067 21.8918C27.9306 22.7158 28.3935 23.8333 28.3935 24.9985C28.3935 26.1637 27.9306 27.2812 27.1067 28.1052C26.2827 28.9291 25.1652 29.392 24 29.392V29.395Z" fill="#6A14D9"/>
</g>
<defs>
<clipPath id="clip0_71_26">
<rect width="24" height="24" fill="white" transform="translate(12 13)"/>
</clipPath>
</defs>
</svg>
