<svg width="49" height="49" viewBox="0 0 49 49" fill="none" xmlns="http://www.w3.org/2000/svg">
<circle cx="24.5" cy="24.5" r="24.5" fill="#FFE39A"/>
<path d="M22.8464 24.4131C22.8105 22.7089 22.4493 21.0272 21.7824 19.4584C17.5261 21.4459 14.3995 25.1959 13.3308 29.6209C13.9562 31.054 14.8633 32.3467 15.998 33.4225C17.0771 29.6702 19.5197 26.4568 22.8464 24.4131V24.4131ZM21.1167 18.1131C20.4038 16.871 19.4953 15.752 18.4261 14.7991C14.1605 17.1334 11.6386 21.9662 12.5667 27.0897C14.1324 23.1944 17.1792 19.9647 21.1167 18.1131ZM29.9105 25.8522C30.3136 21.1741 28.6308 16.5944 25.3402 13.4584C24.6511 13.3787 22.9214 13.2006 20.7042 13.8569C23.417 16.6679 24.9803 20.3918 25.087 24.2969C26.5809 25.1183 28.2182 25.6463 29.9105 25.8522V25.8522ZM24.0652 26.2975C22.6072 27.1827 21.3313 28.3377 20.3058 29.7006C24.1495 32.3866 28.9542 33.2209 33.3136 31.9412C34.2513 30.6849 34.9243 29.2512 35.2917 27.7272C34.0521 28.043 32.7787 28.2067 31.4995 28.2147C28.9402 28.21 26.3949 27.5537 24.0652 26.2975ZM19.4574 30.9709C18.7449 32.1897 18.2527 33.5209 17.9527 34.9178C20.032 36.1941 22.4613 36.781 24.894 36.595C27.3266 36.409 29.6384 35.4594 31.4995 33.8819C26.2074 34.6366 21.9699 32.7194 19.4574 30.9709V30.9709ZM27.9089 14.0678C30.5011 17.3678 31.7761 21.6241 31.4058 25.9553C32.8338 25.9583 34.2532 25.7336 35.6105 25.2897C35.6105 25.1959 35.6245 25.1022 35.6245 25.0084C35.6245 19.9553 32.4042 15.6756 27.9089 14.0678V14.0678Z" fill="#FFC700"/>
</svg>
