<svg width="49" height="49" viewBox="0 0 49 49" fill="none" xmlns="http://www.w3.org/2000/svg">
<circle cx="24.5" cy="24.5" r="24.5" fill="#B5FAFF"/>
<path d="M17.996 22C19.409 22 20.156 21.253 20.701 20.707C21.191 20.217 21.432 20 21.993 20C22.554 20 22.795 20.217 23.285 20.707C23.83 21.253 24.577 22 25.991 22C27.406 22 28.154 21.253 28.701 20.707C29.192 20.217 29.433 20 29.996 20C30.559 20 30.8 20.217 31.291 20.707C31.837 21.253 32.585 22 34 22V20C33.437 20 33.196 19.783 32.705 19.293C32.159 18.747 31.411 18 29.996 18C28.581 18 27.834 18.747 27.287 19.292C26.796 19.783 26.556 20 25.991 20C25.429 20 25.189 19.783 24.699 19.293C24.154 18.747 23.407 18 21.993 18C20.579 18 19.832 18.747 19.287 19.293C18.797 19.783 18.557 20 17.996 20C17.435 20 17.195 19.783 16.705 19.293C16.16 18.747 15.413 18 14 18V20C14.561 20 14.801 20.217 15.291 20.707C15.836 21.253 16.583 22 17.996 22ZM17.996 27C19.409 27 20.156 26.253 20.701 25.707C21.191 25.217 21.432 25 21.993 25C22.554 25 22.795 25.217 23.285 25.707C23.83 26.253 24.577 27 25.991 27C27.406 27 28.154 26.253 28.701 25.707C29.192 25.217 29.433 25 29.996 25C30.559 25 30.8 25.217 31.291 25.707C31.837 26.253 32.585 27 34 27V25C33.437 25 33.196 24.783 32.705 24.293C32.159 23.747 31.411 23 29.996 23C28.581 23 27.834 23.747 27.287 24.292C26.796 24.783 26.556 25 25.991 25C25.429 25 25.189 24.783 24.699 24.293C24.154 23.747 23.407 23 21.993 23C20.579 23 19.832 23.747 19.287 24.293C18.797 24.783 18.557 25 17.996 25C17.435 25 17.195 24.783 16.705 24.293C16.16 23.747 15.413 23 14 23V25C14.561 25 14.801 25.217 15.291 25.707C15.836 26.253 16.583 27 17.996 27ZM17.996 32C19.409 32 20.156 31.253 20.701 30.707C21.191 30.217 21.432 30 21.993 30C22.554 30 22.795 30.217 23.285 30.707C23.83 31.253 24.577 32 25.991 32C27.406 32 28.154 31.253 28.701 30.707C29.192 30.217 29.433 30 29.996 30C30.559 30 30.8 30.217 31.291 30.707C31.837 31.253 32.585 32 34 32V30C33.437 30 33.196 29.783 32.705 29.293C32.159 28.747 31.411 28 29.996 28C28.581 28 27.834 28.747 27.287 29.292C26.796 29.783 26.556 30 25.991 30C25.429 30 25.189 29.783 24.699 29.293C24.154 28.747 23.407 28 21.993 28C20.579 28 19.832 28.747 19.287 29.293C18.797 29.783 18.557 30 17.996 30C17.435 30 17.195 29.783 16.705 29.293C16.16 28.747 15.413 28 14 28V30C14.561 30 14.801 30.217 15.291 30.707C15.836 31.253 16.583 32 17.996 32Z" fill="#0EC4D2"/>
</svg>
