<svg width="49" height="49" viewBox="0 0 49 49" fill="none" xmlns="http://www.w3.org/2000/svg">
<circle cx="24.5" cy="24.5" r="24.5" fill="#81FFD1"/>
<path d="M16.75 31.25C16.34 31.66 16.34 32.34 16.75 32.75C17.16 33.16 17.84 33.16 18.25 32.75L21 30H23L20.5 27.5L16.75 31.25ZM27 18C28.1 18 29 17.1 29 16C29 14.9 28.1 14 27 14C25.9 14 25 14.9 25 16C25 17.1 25.9 18 27 18ZM32.29 33.3L30.29 31.29C30.11 31.11 29.85 31 29.58 31H28.5L22.21 24.71C23.0334 24.3538 23.804 23.8861 24.5 23.32V25.59L28.08 29.17C28.65 28.62 29 27.85 29 27.01V21.26C28.9974 20.6614 28.7584 20.0881 28.3352 19.6648C27.9119 19.2416 27.3386 19.0026 26.74 19H26.72C26.38 19 26.05 19.09 25.76 19.23C25.5 19.35 25.26 19.52 25.07 19.73L23.67 21.28C22.61 22.45 20.66 23.35 19 23.32C18.4 23.32 17.92 23.8 17.92 24.4C17.92 25 18.4 25.48 19 25.48C19.31 25.48 19.61 25.45 19.9 25.41L27.01 32.5V33.58C27.01 33.84 27.11 34.1 27.3 34.28L29.29 36.29C29.68 36.68 30.31 36.68 30.71 36.29L32.29 34.71C32.3827 34.6175 32.4563 34.5076 32.5064 34.3866C32.5566 34.2657 32.5824 34.136 32.5824 34.005C32.5824 33.874 32.5566 33.7443 32.5064 33.6234C32.4563 33.5024 32.3827 33.3925 32.29 33.3V33.3Z" fill="#078E5D"/>
</svg>
