<svg width="49" height="49" viewBox="0 0 49 49" fill="none" xmlns="http://www.w3.org/2000/svg">
<circle cx="24.5" cy="24.5" r="24.5" fill="#FFC1D8"/>
<path d="M22.3608 17.4304C20.5608 19.2316 20.2416 22.0864 20.2944 24.2464C20.2972 24.3696 20.2528 24.4892 20.1703 24.5807C20.0877 24.6722 19.9732 24.7286 19.8504 24.7384C18.0192 24.8608 15.7824 25.228 13.9392 26.2096C13.3224 26.5396 13.0956 27.166 13.2432 27.7372C13.3872 28.282 13.8492 28.7272 14.4768 28.8448C15.3581 29.0055 16.2305 29.2118 17.0904 29.4628C17.5032 29.5876 17.8728 29.7208 18.1728 29.8588C18.4836 30.0004 18.6768 30.1288 18.7752 30.2272C18.8736 30.3256 19.0008 30.5188 19.1424 30.8284C19.2804 31.1284 19.4124 31.498 19.5384 31.912C19.788 32.7376 19.9956 33.6928 20.1528 34.5244C20.2704 35.152 20.7156 35.6164 21.2592 35.758C21.8316 35.908 22.458 35.6812 22.7868 35.062C23.7684 33.2212 24.1368 30.9844 24.2604 29.1532C24.2702 29.0303 24.3266 28.9159 24.4181 28.8333C24.5096 28.7508 24.6292 28.7064 24.7524 28.7092C26.9124 28.762 29.7684 28.4452 31.5684 26.6428C32.6388 25.5724 33.1716 24.1444 33.4152 22.7416C33.66 21.334 33.624 19.9012 33.5148 18.7576C33.439 17.9151 33.0699 17.126 32.4719 16.5277C31.8739 15.9295 31.0848 15.5601 30.2424 15.484C29.0988 15.3748 27.666 15.34 26.2608 15.5836C24.8568 15.8272 23.43 16.36 22.3608 17.4304V17.4304ZM27.9 18.3988C28.1387 18.3988 28.3676 18.4936 28.5364 18.6624C28.7052 18.8312 28.8 19.0601 28.8 19.2988C28.8 19.5375 28.7052 19.7664 28.5364 19.9352C28.3676 20.104 28.1387 20.1988 27.9 20.1988C27.6613 20.1988 27.4324 20.104 27.2636 19.9352C27.0948 19.7664 27 19.5375 27 19.2988C27 19.0601 27.0948 18.8312 27.2636 18.6624C27.4324 18.4936 27.6613 18.3988 27.9 18.3988V18.3988Z" fill="#FB1F6E"/>
</svg>
