<svg width="49" height="49" viewBox="0 0 49 49" fill="none" xmlns="http://www.w3.org/2000/svg">
<circle cx="24.5" cy="24.5" r="24.5" fill="#89CE90"/>
<path d="M28.96 25H29.04C29.85 25 30.32 24.09 29.86 23.43L24.78 16.18C24.6878 16.048 24.5652 15.9402 24.4224 15.8657C24.2796 15.7913 24.121 15.7524 23.96 15.7524C23.799 15.7524 23.6404 15.7913 23.4976 15.8657C23.3548 15.9402 23.2322 16.048 23.14 16.18L18.1 23.43C17.64 24.09 18.12 25 18.93 25H18.97L16.07 29.46C15.63 30.12 16.11 31 16.91 31H21.99V33.02C21.99 34.11 22.88 35 23.97 35C25.06 35 25.95 34.11 25.95 33.02V31H31.1C31.9 31 32.38 30.11 31.93 29.45L28.96 25Z" fill="#00820D"/>
</svg>
