<svg width="20" height="21" viewBox="0 0 20 21" fill="none" xmlns="http://www.w3.org/2000/svg">
<path d="M16.8 5.99089C14.4 2.29089 9.5 1.19089 5.7 3.49089C2 5.79089 0.800001 10.7909 3.2 14.4909L3.4 14.7909L2.6 17.7909L5.6 16.9909L5.9 17.1909C7.2 17.8909 8.6 18.2909 10 18.2909C11.5 18.2909 13 17.8909 14.3 17.0909C18 14.6909 19.1 9.79089 16.8 5.99089V5.99089ZM14.7 13.6909C14.3 14.2909 13.8 14.6909 13.1 14.7909C12.7 14.7909 12.2 14.9909 10.2 14.1909C8.5 13.3909 7.1 12.0909 6.1 10.5909C5.5 9.89089 5.2 8.99089 5.1 8.09089C5.1 7.29089 5.4 6.59089 5.9 6.09089C6.1 5.89089 6.3 5.79089 6.5 5.79089H7C7.2 5.79089 7.4 5.79089 7.5 6.19089C7.7 6.69089 8.2 7.89089 8.2 7.99089C8.3 8.09089 8.3 8.29089 8.2 8.39089C8.3 8.59089 8.2 8.79089 8.1 8.89089C8 8.99089 7.9 9.19089 7.8 9.29089C7.6 9.39089 7.5 9.59089 7.6 9.79089C8 10.3909 8.5 10.9909 9 11.4909C9.6 11.9909 10.2 12.3909 10.9 12.6909C11.1 12.7909 11.3 12.7909 11.4 12.5909C11.5 12.3909 12 11.8909 12.2 11.6909C12.4 11.4909 12.5 11.4909 12.7 11.5909L14.3 12.3909C14.5 12.4909 14.7 12.5909 14.8 12.6909C14.9 12.9909 14.9 13.3909 14.7 13.6909V13.6909Z" fill="white"/>
</svg>
